<svg width="32" height="32" viewBox="0 0 32 32" fill="none" xmlns="http://www.w3.org/2000/svg">
  <defs>
    <linearGradient id="bg-gradient" x1="0" y1="0" x2="32" y2="32" gradientUnits="userSpaceOnUse">
      <stop stop-color="#2563eb"/>
      <stop offset="1" stop-color="#7c3aed"/>
    </linearGradient>
  </defs>
  <rect width="32" height="32" rx="8" fill="url(#bg-gradient)"/>
  <!-- Graduation Cap icon from Lucide (white, centered and smaller) -->
  <g transform="translate(6,6) scale(0.8)">
    <path d="M21.42 10.922a1 1 0 0 0-.019-1.838L12.83 5.18a2 2 0 0 0-1.66 0L2.6 9.08a1 1 0 0 0 0 1.832l8.57 3.908a2 2 0 0 0 1.66 0z" stroke="#fff" stroke-width="2" fill="none"/>
    <path d="M22 10v6" stroke="#fff" stroke-width="2" stroke-linecap="round"/>
    <path d="M6 12.5V16a6 3 0 0 0 12 0v-3.5" stroke="#fff" stroke-width="2" stroke-linecap="round"/>
  </g>
</svg>